<svg width="344" height="298" viewBox="0 0 344 298" fill="none" xmlns="http://www.w3.org/2000/svg">
<path d="M137.963 179.433L138.396 179.183L137.896 178.317L137.463 178.567L137.713 179L137.963 179.433ZM137.713 179L137.463 178.567L137.027 178.819L137.277 179.252L137.527 179.685L137.963 179.433L137.713 179ZM135.533 180.258L135.283 179.825L134.412 180.329L134.662 180.762L134.912 181.195L135.783 180.691L135.533 180.258ZM132.918 181.768L132.668 181.335L131.796 181.839L132.046 182.272L132.296 182.705L133.168 182.201L132.918 181.768ZM130.303 183.278L130.053 182.845L129.181 183.349L129.431 183.782L129.681 184.215L130.553 183.711L130.303 183.278ZM127.687 184.788L127.437 184.355L126.565 184.859L126.815 185.292L127.065 185.725L127.937 185.221L127.687 184.788ZM125.072 186.298L124.822 185.865L123.95 186.369L124.2 186.802L124.45 187.235L125.322 186.731L125.072 186.298ZM122.456 187.808L122.206 187.375L121.335 187.879L121.585 188.312L121.835 188.745L122.706 188.241L122.456 187.808ZM119.841 189.318L119.591 188.885L118.719 189.389L118.969 189.822L119.219 190.255L120.091 189.751L119.841 189.318ZM117.226 190.828L116.976 190.395L116.104 190.899L116.354 191.332L116.604 191.765L117.476 191.261L117.226 190.828ZM114.61 192.338L114.36 191.905L113.489 192.409L113.739 192.842L113.989 193.275L114.86 192.771L114.61 192.338ZM111.995 193.848L111.745 193.415L110.873 193.919L111.123 194.352L111.373 194.785L112.245 194.281L111.995 193.848ZM109.38 195.358L109.13 194.925L108.258 195.429L108.508 195.862L108.758 196.295L109.63 195.791L109.38 195.358ZM106.764 196.868L106.514 196.435L105.642 196.939L105.892 197.372L106.142 197.805L107.014 197.301L106.764 196.868ZM104.149 198.378L103.899 197.945L103.027 198.449L103.277 198.882L103.527 199.315L104.399 198.811L104.149 198.378ZM101.533 199.888L101.283 199.455L100.412 199.959L100.662 200.392L100.912 200.825L101.783 200.321L101.533 199.888ZM98.918 201.398L98.668 200.965L97.7962 201.469L98.0462 201.902L98.2962 202.335L99.168 201.831L98.918 201.398ZM96.3026 202.908L96.0526 202.475L95.1808 202.979L95.4308 203.412L95.6808 203.845L96.5526 203.341L96.3026 202.908ZM93.6872 204.418L93.4372 203.985L92.5655 204.489L92.8155 204.922L93.0655 205.355L93.9372 204.851L93.6872 204.418ZM91.0719 205.928L90.8219 205.495L89.9501 205.999L90.2001 206.432L90.4501 206.865L91.3219 206.361L91.0719 205.928ZM88.4565 207.438L88.2065 207.005L87.3347 207.509L87.5847 207.942L87.8347 208.375L88.7065 207.871L88.4565 207.438ZM85.8411 208.948L85.5911 208.515L84.7193 209.019L84.9693 209.452L85.2193 209.885L86.0911 209.381L85.8411 208.948ZM83.2257 210.458L82.9757 210.025L82.1039 210.529L82.3539 210.962L82.6039 211.395L83.4757 210.891L83.2257 210.458ZM80.6103 211.968L80.3603 211.535L79.4885 212.038L79.7385 212.472L79.9885 212.905L80.8603 212.401L80.6103 211.968ZM77.9949 213.478L77.7449 213.045L76.8732 213.548L77.1232 213.981L77.3732 214.415L78.2449 213.911L77.9949 213.478ZM75.3796 214.988L75.1296 214.555L74.2578 215.058L74.5078 215.491L74.7578 215.925L75.6296 215.421L75.3796 214.988ZM72.7642 216.498L72.5142 216.065L71.6424 216.568L71.8924 217.001L72.1424 217.434L73.0142 216.931L72.7642 216.498ZM70.1488 218.008L69.8988 217.575L69.4629 217.827L69.7129 218.26L69.9629 218.693L70.3988 218.441L70.1488 218.008Z" fill="#B5B5B5"/>
<g filter="url(#filter0_f_1042_2210)">
<path d="M171.262 276.978L16.3926 189.711L170.552 102.033L322.413 189.711L171.262 276.978Z" fill="url(#paint0_linear_1042_2210)" fill-opacity="0.4"/>
</g>
<path d="M14.7808 187.569C14.6636 187.132 14.9231 186.683 15.3602 186.566L22.4836 184.657C22.9208 184.54 23.3701 184.799 23.4872 185.237C23.6043 185.674 23.3449 186.123 22.9078 186.24L16.5758 187.937L18.2725 194.269C18.3896 194.706 18.1302 195.155 17.693 195.272C17.2559 195.389 16.8066 195.13 16.6895 194.693L14.7808 187.569ZM170.674 276.906L170.264 277.616L15.1626 188.067L15.5723 187.357L15.982 186.648L171.084 276.196L170.674 276.906Z" fill="#002983"/>
<path d="M238.966 88.5951L239.399 88.3451L238.899 87.4791L238.466 87.7291L238.716 88.1621L238.966 88.5951ZM238.716 88.1621L238.466 87.7291L238.033 87.9789L238.283 88.4119L238.533 88.8449L238.966 88.5951L238.716 88.1621ZM236.552 89.4112L236.302 88.9782L235.437 89.4778L235.687 89.9108L235.937 90.3438L236.802 89.8442L236.552 89.4112ZM233.956 90.9101L233.706 90.4771L232.841 90.9767L233.091 91.4097L233.341 91.8427L234.206 91.3431L233.956 90.9101ZM231.36 92.409L231.11 91.976L230.245 92.4756L230.495 92.9086L230.745 93.3416L231.61 92.842L231.36 92.409ZM228.764 93.9079L228.514 93.4748L227.649 93.9745L227.899 94.4075L228.149 94.8405L229.014 94.3409L228.764 93.9079ZM226.168 95.4067L225.918 94.9737L225.052 95.4734L225.302 95.9064L225.552 96.3394L226.418 95.8398L226.168 95.4067ZM223.572 96.9056L223.322 96.4726L222.456 96.9723L222.706 97.4053L222.956 97.8383L223.822 97.3386L223.572 96.9056ZM220.975 98.4045L220.725 97.9715L219.86 98.4711L220.11 98.9042L220.36 99.3372L221.225 98.8375L220.975 98.4045ZM218.379 99.9034L218.129 99.4704L217.264 99.97L217.514 100.403L217.764 100.836L218.629 100.336L218.379 99.9034ZM215.783 101.402L215.533 100.969L214.668 101.469L214.918 101.902L215.168 102.335L216.033 101.835L215.783 101.402ZM213.187 102.901L212.937 102.468L212.072 102.968L212.322 103.401L212.572 103.834L213.437 103.334L213.187 102.901ZM210.591 104.4L210.341 103.967L209.475 104.467L209.725 104.9L209.975 105.333L210.841 104.833L210.591 104.4ZM207.995 105.899L207.745 105.466L206.879 105.966L207.129 106.399L207.379 106.832L208.245 106.332L207.995 105.899ZM205.399 107.398L205.149 106.965L204.283 107.464L204.533 107.897L204.783 108.331L205.649 107.831L205.399 107.398ZM202.802 108.897L202.552 108.464L201.687 108.963L201.937 109.396L202.187 109.829L203.052 109.33L202.802 108.897ZM200.206 110.396L199.956 109.963L199.091 110.462L199.341 110.895L199.591 111.328L200.456 110.829L200.206 110.396ZM197.61 111.895L197.36 111.462L196.495 111.961L196.745 112.394L196.995 112.827L197.86 112.328L197.61 111.895ZM195.014 113.393L194.764 112.96L193.899 113.46L194.149 113.893L194.399 114.326L195.264 113.826L195.014 113.393ZM192.418 114.892L192.168 114.459L191.302 114.959L191.552 115.392L191.802 115.825L192.668 115.325L192.418 114.892ZM189.822 116.391L189.572 115.958L188.706 116.458L188.956 116.891L189.206 117.324L190.072 116.824L189.822 116.391ZM187.225 117.89L186.975 117.457L186.11 117.957L186.36 118.39L186.61 118.823L187.475 118.323L187.225 117.89ZM184.629 119.389L184.379 118.956L183.514 119.456L183.764 119.889L184.014 120.322L184.879 119.822L184.629 119.389ZM182.033 120.888L181.783 120.455L180.918 120.954L181.168 121.388L181.418 121.821L182.283 121.321L182.033 120.888ZM179.437 122.387L179.187 121.954L178.322 122.453L178.572 122.886L178.822 123.319L179.687 122.82L179.437 122.387ZM176.841 123.886L176.591 123.453L175.725 123.952L175.975 124.385L176.225 124.818L177.091 124.319L176.841 123.886ZM174.245 125.385L173.995 124.952L173.129 125.451L173.379 125.884L173.629 126.317L174.495 125.818L174.245 125.385ZM171.649 126.883L171.399 126.45L170.966 126.7L171.216 127.133L171.466 127.566L171.899 127.316L171.649 126.883Z" fill="#B5B5B5"/>
<path d="M327.153 187.569C327.27 187.132 327.011 186.683 326.573 186.566L319.45 184.657C319.013 184.54 318.564 184.799 318.446 185.237C318.329 185.674 318.589 186.123 319.026 186.24L325.358 187.937L323.661 194.269C323.544 194.706 323.803 195.155 324.241 195.272C324.678 195.389 325.127 195.13 325.244 194.693L327.153 187.569ZM171.259 276.906L171.669 277.616L326.771 188.067L326.361 187.357L325.952 186.648L170.85 276.196L171.259 276.906Z" fill="#002983"/>
<path d="M138.079 178.579L239.686 237.184V88.1777L138.079 29.5713V178.579Z" fill="#2876F1" fill-opacity="0.5" stroke="#024FCB" stroke-width="0.819413"/>
<path d="M136.025 28.043H140.122V32.14H136.025V28.043Z" fill="#024FCB"/>
<path d="M170.68 30.985C171 30.665 171.519 30.665 171.839 30.985L177.054 36.1998C177.374 36.5198 177.374 37.0386 177.054 37.3586C176.734 37.6786 176.215 37.6786 175.895 37.3586L171.26 32.7233L166.624 37.3586C166.304 37.6786 165.786 37.6786 165.466 37.3586C165.146 37.0386 165.146 36.5198 165.466 36.1998L170.68 30.985ZM171.26 277.388L170.44 277.388L170.44 31.5645L171.26 31.5645L172.079 31.5645L172.079 277.388L171.26 277.388Z" fill="#002983"/>
<path d="M1.77734 180.102L4.12891 183.957H4.21094L6.57617 180.102H8.3125L5.22266 185.051L8.33984 190H6.57617L4.21094 186.186H4.12891L1.75 190H0L3.1582 185.051L0.0136719 180.102H1.77734Z" fill="#717171"/>
<path d="M336.465 192V191.002L341.66 183.4H336.41V182.102H343.506V183.1L338.311 190.701H343.547V192H336.465Z" fill="#717171"/>
<path d="M166.959 5.10156H168.668L171.238 9.58594H171.348L173.932 5.10156H175.641L172.045 11.1172V15H170.541V11.1172L166.959 5.10156Z" fill="#717171"/>
<defs>
<filter id="filter0_f_1042_2210" x="8.19845" y="93.8391" width="322.409" height="191.334" filterUnits="userSpaceOnUse" color-interpolation-filters="sRGB">
<feFlood flood-opacity="0" result="BackgroundImageFix"/>
<feBlend mode="normal" in="SourceGraphic" in2="BackgroundImageFix" result="shape"/>
<feGaussianBlur stdDeviation="0" result="effect1_foregroundBlur_1042_2210"/>
</filter>
<linearGradient id="paint0_linear_1042_2210" x1="308.104" y1="184.42" x2="166.755" y2="268.82" gradientUnits="userSpaceOnUse">
<stop stop-color="#2876F1"/>
<stop offset="1" stop-color="#DDDDDD"/>
</linearGradient>
</defs>
</svg>
