<svg width="10" height="15" viewBox="0 0 10 15" fill="none" xmlns="http://www.w3.org/2000/svg">
<path d="M9.4082 9.50391L6.56445 7.84473L6.58984 7.83105V5.64551L9.4082 4.04004V9.50391Z" fill="url(#paint0_linear_1532_3781)"/>
<path d="M9.41504 9.50439L4.67969 12.0884V8.93799L6.58789 7.83057V7.82959L9.41504 9.50439Z" fill="url(#paint1_linear_1532_3781)"/>
<path d="M4.69543 1.37875L4.69543 6.73972L9.38867 4.05029L4.69543 1.37875Z" fill="#717171"/>
<path d="M4.69543 1.37875L4.69543 6.73972L9.38867 4.05029L4.69543 1.37875Z" fill="#121212" fill-opacity="0.7"/>
<path d="M4.7002 12.0752L0.00390625 14.6572V4.05078L4.69238 1.4248L4.7002 12.0752Z" fill="url(#paint2_linear_1532_3781)"/>
<path d="M4.69342 1.37872L4.69342 6.73969L9.41406 4.04004L4.69342 1.37872Z" fill="url(#paint3_linear_1532_3781)"/>
<path d="M4.69307 1.37817L4.69307 6.73918L0 4.05029L4.69307 1.37817Z" fill="url(#paint4_linear_1532_3781)"/>
<defs>
<linearGradient id="paint0_linear_1532_3781" x1="7.0364" y1="5.38796" x2="9.35672" y2="9.44302" gradientUnits="userSpaceOnUse">
<stop stop-color="#002983"/>
<stop offset="0.728113" stop-color="#024FCB"/>
</linearGradient>
<linearGradient id="paint1_linear_1532_3781" x1="6.99279" y1="8.03263" x2="4.65765" y2="12.0755" gradientUnits="userSpaceOnUse">
<stop stop-color="#002983"/>
<stop offset="1" stop-color="#00091D"/>
</linearGradient>
<linearGradient id="paint2_linear_1532_3781" x1="1.45152" y1="1.4248" x2="1.45152" y2="14.6572" gradientUnits="userSpaceOnUse">
<stop offset="0.394744" stop-color="#005AE8"/>
<stop offset="1" stop-color="#75ABFF"/>
</linearGradient>
<linearGradient id="paint3_linear_1532_3781" x1="7.04443" y1="5.40256" x2="4.7143" y2="1.36667" gradientUnits="userSpaceOnUse">
<stop stop-color="#2876F1"/>
<stop offset="1" stop-color="#002983"/>
</linearGradient>
<linearGradient id="paint4_linear_1532_3781" x1="4.67201" y1="1.36612" x2="2.34189" y2="5.40201" gradientUnits="userSpaceOnUse">
<stop stop-color="#C1D9FF"/>
<stop offset="1" stop-color="#2876F1"/>
</linearGradient>
</defs>
</svg>
