<svg xmlns="http://www.w3.org/2000/svg" width="103" height="103" viewBox="0 0 103 103" fill="none">
  <circle cx="51.4453" cy="51.4453" r="51.4453" fill="url(#paint0_linear_1042_2169)"/>
  <mask id="mask0_1042_2169" style="mask-type:alpha" maskUnits="userSpaceOnUse" x="0" y="0" width="103" height="103">
    <circle cx="51.4453" cy="51.4453" r="51.4453" fill="url(#paint1_linear_1042_2169)"/>
  </mask>
  <g mask="url(#mask0_1042_2169)">
    <rect x="37.2266" y="27.6406" width="45.0279" height="94.4377" rx="3.22454" fill="url(#paint2_linear_1042_2169)"/>
    <rect x="20.6328" y="22.3516" width="45.0279" height="94.4377" rx="3.22454" fill="url(#paint3_linear_1042_2169)"/>
  </g>
  <rect x="32.2734" y="29" width="5.73047" height="5.73047" fill="#E5EFFF"/>
  <rect x="40.4609" y="29" width="5.73047" height="5.73047" fill="#E5EFFF"/>
  <rect x="56.8359" y="29" width="5.73047" height="5.73047" fill="#E5EFFF"/>
  <rect x="73.2109" y="39.5645" width="5.73047" height="5.73047" fill="#E5EFFF"/>
  <rect x="24.0859" y="38.9531" width="5.73047" height="5.73047" fill="#E5EFFF"/>
  <rect x="40.4609" y="38.9531" width="5.73047" height="5.73047" fill="#E5EFFF"/>
  <rect x="48.6484" y="38.9531" width="5.73047" height="5.73047" fill="#E5EFFF"/>
  <rect x="56.8359" y="38.9531" width="5.73047" height="5.73047" fill="#E5EFFF"/>
  <rect x="73.2109" y="49.5176" width="5.73047" height="5.73047" fill="#E5EFFF"/>
  <rect x="24.0859" y="49.2676" width="5.73047" height="5.73047" fill="#E5EFFF"/>
  <rect x="48.6484" y="49.2676" width="5.73047" height="5.73047" fill="#E5EFFF"/>
  <rect x="56.8359" y="49" width="5.73047" height="5.73047" fill="#E5EFFF"/>
  <rect x="56.8359" y="59.2227" width="5.73047" height="5.73047" fill="#E5EFFF"/>
  <defs>
    <linearGradient id="paint0_linear_1042_2169" x1="51.4453" y1="0" x2="51.4453" y2="102.891" gradientUnits="userSpaceOnUse">
      <stop stop-color="#F6F9FF"/>
      <stop offset="1" stop-color="#DFEBFF"/>
    </linearGradient>
    <linearGradient id="paint1_linear_1042_2169" x1="51.4453" y1="0" x2="51.4453" y2="102.891" gradientUnits="userSpaceOnUse">
      <stop stop-color="#F6F9FF"/>
      <stop offset="1" stop-color="#DFEBFF"/>
    </linearGradient>
    <linearGradient id="paint2_linear_1042_2169" x1="57.9194" y1="54.3812" x2="62.1554" y2="121.927" gradientUnits="userSpaceOnUse">
      <stop stop-color="#C1D9FF"/>
      <stop offset="1" stop-color="#84B4FF"/>
    </linearGradient>
    <linearGradient id="paint3_linear_1042_2169" x1="43.1468" y1="22.3516" x2="43.1468" y2="116.789" gradientUnits="userSpaceOnUse">
      <stop stop-color="#007BFF"/>
      <stop offset="1" stop-color="#024FCB"/>
    </linearGradient>
  </defs>
</svg>