<svg width="24" height="24" viewBox="0 0 24 24" fill="none" xmlns="http://www.w3.org/2000/svg">
<path d="M5.03437 12.7987L4.88177 12.9596C3.3569 14.6475 3.40847 17.2534 5.03506 18.8802C6.71436 20.5593 9.43668 20.5594 11.1159 18.8802L17.2969 12.6992L16.2362 11.6386L10.0552 17.8195C8.96181 18.9129 7.18924 18.9128 6.09572 17.8195C5.00237 16.726 5.0016 14.9528 6.09503 13.8593L12.276 7.67835L11.2153 6.61769L5.03437 12.7987Z" fill="#717171"/>
<path d="M5.03437 12.7987L4.88177 12.9596C3.3569 14.6475 3.40847 17.2534 5.03506 18.8802C6.71436 20.5593 9.43668 20.5594 11.1159 18.8802L17.2969 12.6992L16.2362 11.6386L10.0552 17.8195C8.96181 18.9129 7.18924 18.9128 6.09572 17.8195C5.00237 16.726 5.0016 14.9528 6.09503 13.8593L12.276 7.67835L11.2153 6.61769L5.03437 12.7987Z" fill="#717171"/>
<path d="M5.03437 12.7987L4.88177 12.9596C3.3569 14.6475 3.40847 17.2534 5.03506 18.8802C6.71436 20.5593 9.43668 20.5594 11.1159 18.8802L17.2969 12.6992L16.2362 11.6386L10.0552 17.8195C8.96181 18.9129 7.18924 18.9128 6.09572 17.8195C5.00237 16.726 5.0016 14.9528 6.09503 13.8593L12.276 7.67835L11.2153 6.61769L5.03437 12.7987Z" fill="#717171"/>
<path d="M5.03437 12.7987L4.88177 12.9596C3.3569 14.6475 3.40847 17.2534 5.03506 18.8802C6.71436 20.5593 9.43668 20.5594 11.1159 18.8802L17.2969 12.6992L16.2362 11.6386L10.0552 17.8195C8.96181 18.9129 7.18924 18.9128 6.09572 17.8195C5.00237 16.726 5.0016 14.9528 6.09503 13.8593L12.276 7.67835L11.2153 6.61769L5.03437 12.7987Z" fill="#717171"/>
<path d="M7.27174 13.8761L7.13501 14.0281C6.49603 14.8114 6.54152 15.9675 7.27174 16.6977L7.42366 16.8344C8.20701 17.4729 9.36253 17.427 10.0926 16.697L15.6997 11.0898L14.639 10.0292L9.03191 15.6363C8.83892 15.8293 8.52551 15.8298 8.3324 15.637C8.13931 15.4439 8.13931 15.1299 8.3324 14.9368L13.9395 9.32967L12.8789 8.26901L7.27174 13.8761Z" fill="#717171"/>
<path d="M7.27174 13.8761L7.13501 14.0281C6.49603 14.8114 6.54152 15.9675 7.27174 16.6977L7.42366 16.8344C8.20701 17.4729 9.36253 17.427 10.0926 16.697L15.6997 11.0898L14.639 10.0292L9.03191 15.6363C8.83892 15.8293 8.52551 15.8298 8.3324 15.637C8.13931 15.4439 8.13931 15.1299 8.3324 14.9368L13.9395 9.32967L12.8789 8.26901L7.27174 13.8761Z" fill="#717171"/>
<path d="M7.27174 13.8761L7.13501 14.0281C6.49603 14.8114 6.54152 15.9675 7.27174 16.6977L7.42366 16.8344C8.20701 17.4729 9.36253 17.427 10.0926 16.697L15.6997 11.0898L14.639 10.0292L9.03191 15.6363C8.83892 15.8293 8.52551 15.8298 8.3324 15.637C8.13931 15.4439 8.13931 15.1299 8.3324 14.9368L13.9395 9.32967L12.8789 8.26901L7.27174 13.8761Z" fill="#717171"/>
<path d="M7.27174 13.8761L7.13501 14.0281C6.49603 14.8114 6.54152 15.9675 7.27174 16.6977L7.42366 16.8344C8.20701 17.4729 9.36253 17.427 10.0926 16.697L15.6997 11.0898L14.639 10.0292L9.03191 15.6363C8.83892 15.8293 8.52551 15.8298 8.3324 15.637C8.13931 15.4439 8.13931 15.1299 8.3324 14.9368L13.9395 9.32967L12.8789 8.26901L7.27174 13.8761Z" fill="#717171"/>
<path d="M19.3534 6.22572C18.1318 5.00444 16.1507 5.00371 14.9292 6.22503L8.73852 12.4157L9.79918 13.4763L15.9898 7.28569C16.6256 6.65016 17.6569 6.65089 18.2927 7.28638C18.9283 7.92217 18.9283 8.95281 18.2927 9.58862L12.1021 15.7793L13.1628 16.8399L19.3534 10.6493C20.5748 9.42769 20.5748 7.4473 19.3534 6.22572Z" fill="#717171"/>
<path d="M19.3534 6.22572C18.1318 5.00444 16.1507 5.00371 14.9292 6.22503L8.73852 12.4157L9.79918 13.4763L15.9898 7.28569C16.6256 6.65016 17.6569 6.65089 18.2927 7.28638C18.9283 7.92217 18.9283 8.95281 18.2927 9.58862L12.1021 15.7793L13.1628 16.8399L19.3534 10.6493C20.5748 9.42769 20.5748 7.4473 19.3534 6.22572Z" fill="#717171"/>
<path d="M19.3534 6.22572C18.1318 5.00444 16.1507 5.00371 14.9292 6.22503L8.73852 12.4157L9.79918 13.4763L15.9898 7.28569C16.6256 6.65016 17.6569 6.65089 18.2927 7.28638C18.9283 7.92217 18.9283 8.95281 18.2927 9.58862L12.1021 15.7793L13.1628 16.8399L19.3534 10.6493C20.5748 9.42769 20.5748 7.4473 19.3534 6.22572Z" fill="#717171"/>
<path d="M19.3534 6.22572C18.1318 5.00444 16.1507 5.00371 14.9292 6.22503L8.73852 12.4157L9.79918 13.4763L15.9898 7.28569C16.6256 6.65016 17.6569 6.65089 18.2927 7.28638C18.9283 7.92217 18.9283 8.95281 18.2927 9.58862L12.1021 15.7793L13.1628 16.8399L19.3534 10.6493C20.5748 9.42769 20.5748 7.4473 19.3534 6.22572Z" fill="#717171"/>
</svg>
