<svg width="60" height="35" viewBox="0 0 60 35" fill="none" xmlns="http://www.w3.org/2000/svg">
<g clip-path="url(#clip0_1277_1517)">
<path d="M5.81175 13.8206C5.17111 15.4213 7.37185 17.1765 7.37185 17.1765C7.37185 17.1765 7.47718 17.2653 7.66925 17.4247C9.6234 19.0571 20.6841 28.293 21.4437 28.8343C22.5738 29.6347 21.7386 29.8974 21.7386 29.8974C18.9034 30.1297 17.7349 29.8804 17.7349 29.8804C17.7349 29.8804 16.5329 29.8159 15.4586 28.9584L6.07693 21.1066C5.18598 20.2309 5.04595 19.2164 5.04595 19.2164C5.04595 19.2164 4.78573 17.2568 5.04719 15.6488C5.14509 15.0126 5.51559 14.1988 5.81051 13.8193L5.81175 13.8206Z" fill="white"/>
<path d="M59.6068 6.31561C58.4271 6.96637 56.0145 8.81891 56.0145 8.81891C55.4693 9.286 55.4693 9.95987 55.4693 10.3491V21.4133C55.4693 27.3224 49.5176 27.8674 49.5176 27.8674C53.8398 28.1763 56.4346 27.0244 57.9178 25.7995C59.9922 24.0856 59.9996 22.1735 59.9996 21.8609V6.54794C59.9996 6.29372 59.7567 6.2256 59.6068 6.31439V6.31561Z" fill="white"/>
<path d="M38.3807 0.0362724C38.5319 -0.0513067 38.7735 0.0168104 38.7735 0.272249V34.6908C38.7735 34.6908 38.7698 35.1263 38.3832 34.9633C37.4687 34.5728 35.9346 33.7165 34.7686 32.5573C34.7686 32.5573 34.3398 32.1741 34.3398 31.4151V4.06977C34.3398 3.68053 34.3398 3.00423 34.8814 2.54079C34.8814 2.54079 37.2035 0.689466 38.382 0.035056L38.3807 0.0362724Z" fill="white"/>
<path d="M20.5205 23.7767C20.5205 24.5369 20.9493 24.9201 20.9493 24.9201C21.7795 25.8676 23.1289 26.904 24.5664 27.8795C24.9121 28.1131 24.9567 27.6107 24.9567 27.6107V6.54794C24.9567 6.29372 24.7163 6.2256 24.5676 6.31439C23.3879 6.96515 21.0682 8.8177 21.0682 8.8177C20.5242 9.28478 20.5242 9.95866 20.5242 10.3479L20.5205 23.7767Z" fill="white"/>
<path d="M4.04337 6.3159C4.19083 6.22589 4.4337 6.29522 4.4337 6.54944V27.6426C4.4337 27.6426 4.42751 28.0732 4.04337 27.9114C3.12887 27.5234 1.5948 26.6647 0.429988 25.5079C0.429988 25.5079 0 25.1259 0 24.3669V10.3506C0 9.96016 0 9.28751 0.54399 8.82042C0.54399 8.82042 2.86493 6.96788 4.04461 6.31711L4.04337 6.3159Z" fill="white"/>
<path d="M34.3387 15.1611H24.957V19.2506H34.3387V15.1611Z" fill="white"/>
<path d="M42.8662 21.8612C42.8662 22.1592 43.1004 27.0442 49.5205 27.8676C49.5986 27.8616 55.4697 27.2558 55.4697 21.4136H55.4598C55.4598 23.5507 53.6134 25.2707 51.4325 25.2707C49.2516 25.2707 47.4114 23.4923 47.4015 21.298V10.3494C47.4015 9.95894 47.4003 9.28629 46.8563 8.8192C46.8563 8.8192 44.4412 6.96666 43.2627 6.3159C43.114 6.22589 42.8724 6.29522 42.8724 6.54944L42.8662 21.8612Z" fill="white"/>
<path d="M7.37208 17.1774C7.37208 17.1774 7.4774 17.2662 7.66947 17.4255C7.67319 17.3404 7.71532 17.2114 7.87022 17.0448C8.16266 16.7188 14.9917 11.5005 14.9917 11.5005C15.9731 10.8255 15.9433 9.90952 15.9433 9.90952V6.00495C15.9433 5.38947 15.4514 5.74222 15.4514 5.74222L9.46377 10.435C8.87517 10.8972 6.6261 12.5795 5.81322 13.8214C5.17257 15.4221 7.37332 17.1774 7.37332 17.1774H7.37208Z" fill="white"/>
</g>
<defs>
<clipPath id="clip0_1277_1517">
<rect width="60" height="35" fill="white"/>
</clipPath>
</defs>
</svg>
