<svg width="185" height="39" viewBox="0 0 185 39" fill="none" xmlns="http://www.w3.org/2000/svg">
<path d="M82.1566 29.7266V14.5298H88.4065C89.0486 14.5298 89.6336 14.6654 90.1616 14.9365C90.7038 15.2076 91.1747 15.5715 91.5743 16.0281C91.9738 16.4705 92.2806 16.9699 92.4946 17.5264C92.7229 18.0829 92.8371 18.6536 92.8371 19.2387C92.8371 20.052 92.6516 20.8226 92.2806 21.5503C91.9239 22.2638 91.4244 22.8488 90.7823 23.3054C90.1545 23.762 89.4053 23.9903 88.5349 23.9903H83.2482V29.7266H82.1566ZM83.2482 22.9844H88.4921C89.1628 22.9844 89.7407 22.806 90.2258 22.4493C90.711 22.0925 91.082 21.6288 91.3388 21.058C91.5957 20.4872 91.7241 19.8808 91.7241 19.2387C91.7241 18.568 91.5671 17.9545 91.2532 17.398C90.9535 16.8272 90.5469 16.3706 90.0332 16.0281C89.5338 15.6856 88.9773 15.5144 88.3637 15.5144H83.2482V22.9844ZM105.574 28.742V29.7266H95.4504V14.5298H105.382V15.5144H96.542V21.4861H104.269V22.4279H96.542V28.742H105.574ZM108.556 29.7266V14.5298H114.87C115.527 14.5298 116.119 14.6654 116.647 14.9365C117.189 15.2076 117.653 15.5715 118.038 16.0281C118.437 16.4705 118.744 16.9699 118.958 17.5264C119.187 18.0829 119.301 18.6536 119.301 19.2387C119.301 19.995 119.151 20.7013 118.851 21.3577C118.552 22.014 118.131 22.5634 117.588 23.0058C117.06 23.4481 116.44 23.7192 115.726 23.8191L119.515 29.7266H118.252L114.571 23.9903H109.648V29.7266H108.556ZM109.648 22.9844H114.977C115.634 22.9844 116.204 22.806 116.689 22.4493C117.175 22.0925 117.546 21.6288 117.802 21.058C118.074 20.4872 118.209 19.8808 118.209 19.2387C118.209 18.5823 118.052 17.9759 117.738 17.4194C117.439 16.8486 117.032 16.392 116.518 16.0495C116.019 15.6928 115.455 15.5144 114.827 15.5144H109.648V22.9844ZM132.884 15.5144H127.319V29.7266H126.228V15.5144H120.663V14.5298H132.884V15.5144ZM135.248 29.7266V14.5298H136.34V29.7266H135.248ZM141.419 16.5632V29.7266H140.327V14.5298H141.226L151.821 27.9072V14.5298H152.913V29.7266H151.843L141.419 16.5632ZM167.006 28.742V29.7266H156.882V14.5298H166.813V15.5144H157.973V21.4861H165.7V22.4279H157.973V28.742H167.006ZM175.731 29.8336C174.675 29.8336 173.712 29.6195 172.842 29.1915C171.971 28.7491 171.222 28.1641 170.594 27.4364C169.967 26.7086 169.481 25.8881 169.139 24.9749C168.796 24.0474 168.625 23.0985 168.625 22.1282C168.625 21.1151 168.804 20.1519 169.16 19.2387C169.517 18.3112 170.016 17.4907 170.659 16.7772C171.315 16.0495 172.071 15.4787 172.927 15.0649C173.798 14.6369 174.74 14.4228 175.753 14.4228C176.823 14.4228 177.786 14.644 178.642 15.0863C179.513 15.5287 180.262 16.1209 180.89 16.8629C181.517 17.6049 182.003 18.4325 182.345 19.3457C182.688 20.2589 182.859 21.1864 182.859 22.1282C182.859 23.1556 182.68 24.133 182.324 25.0605C181.967 25.9738 181.46 26.7942 180.804 27.522C180.162 28.2354 179.406 28.7991 178.535 29.2129C177.679 29.6267 176.744 29.8336 175.731 29.8336ZM169.717 22.1282C169.717 22.9986 169.867 23.8334 170.166 24.6324C170.466 25.4315 170.88 26.145 171.408 26.7728C171.95 27.4007 172.585 27.9001 173.313 28.2711C174.055 28.6421 174.868 28.8276 175.753 28.8276C176.652 28.8276 177.472 28.635 178.214 28.2497C178.956 27.8644 179.591 27.3507 180.119 26.7086C180.647 26.0665 181.047 25.353 181.318 24.5682C181.603 23.7692 181.746 22.9558 181.746 22.1282C181.746 21.2578 181.596 20.423 181.296 19.624C181.011 18.8249 180.597 18.1114 180.055 17.4836C179.513 16.8557 178.871 16.3563 178.129 15.9853C177.401 15.6143 176.609 15.4288 175.753 15.4288C174.839 15.4288 174.012 15.6214 173.27 16.0067C172.528 16.392 171.893 16.9057 171.365 17.5478C170.851 18.1899 170.445 18.9105 170.145 19.7096C169.86 20.4944 169.717 21.3006 169.717 22.1282Z" fill="white"/>
<g clip-path="url(#clip0_1851_4071)">
<path d="M5.08771 18.7003C4.52689 20.1016 6.45341 21.6381 6.45341 21.6381C6.45341 21.6381 6.54561 21.7158 6.71375 21.8553C8.42441 23.2843 18.1069 31.3694 18.7719 31.8432C19.7612 32.5439 19.03 32.7739 19.03 32.7739C16.5481 32.9773 15.5252 32.759 15.5252 32.759C15.5252 32.759 14.473 32.7025 13.5325 31.9518L5.31984 25.0785C4.53991 24.3118 4.41733 23.4238 4.41733 23.4238C4.41733 23.4238 4.18953 21.7084 4.41841 20.3007C4.50411 19.7438 4.82845 19.0314 5.08662 18.6992L5.08771 18.7003Z" fill="white"/>
<path d="M52.1797 12.1312C51.147 12.7008 49.035 14.3225 49.035 14.3225C48.5577 14.7314 48.5577 15.3213 48.5577 15.6621V25.3476C48.5577 30.5204 43.3477 30.9975 43.3477 30.9975C47.1313 31.2679 49.4027 30.2596 50.7012 29.1873C52.5171 27.687 52.5236 26.0131 52.5236 25.7394V12.3345C52.5236 12.112 52.311 12.0524 52.1797 12.1301V12.1312Z" fill="white"/>
<path d="M33.5979 6.63332C33.7303 6.55665 33.9418 6.61628 33.9418 6.83989V36.9698C33.9418 36.9698 33.9385 37.351 33.6001 37.2083C32.7995 36.8665 31.4566 36.1168 30.4359 35.1021C30.4359 35.1021 30.0605 34.7667 30.0605 34.1022V10.1642C30.0605 9.82349 30.0605 9.23145 30.5346 8.82576C30.5346 8.82576 32.5674 7.20512 33.599 6.63225L33.5979 6.63332Z" fill="white"/>
<path d="M17.9629 27.4165C17.9629 28.082 18.3382 28.4174 18.3382 28.4174C19.065 29.2469 20.2463 30.1541 21.5046 31.0081C21.8073 31.2126 21.8463 30.7728 21.8463 30.7728V12.3345C21.8463 12.112 21.6359 12.0524 21.5057 12.1301C20.473 12.6998 18.4424 14.3215 18.4424 14.3215C17.9661 14.7304 17.9661 15.3203 17.9661 15.661L17.9629 27.4165Z" fill="white"/>
<path d="M3.53955 12.1306C3.66863 12.0518 3.88125 12.1125 3.88125 12.335V30.7999C3.88125 30.7999 3.87582 31.1768 3.53955 31.0352C2.739 30.6955 1.39608 29.9438 0.376409 28.9311C0.376409 28.9311 0 28.5968 0 27.9323V15.6625C0 15.3207 0 14.7319 0.476207 14.323C0.476207 14.323 2.50795 12.7013 3.54063 12.1316L3.53955 12.1306Z" fill="white"/>
<path d="M30.0603 19.875H21.8477V23.4549H30.0603V19.875Z" fill="white"/>
<path d="M37.5254 25.7388C37.5254 25.9997 37.7304 30.276 43.3505 30.9969C43.4189 30.9915 48.5584 30.4613 48.5584 25.347H48.5497C48.5497 27.2178 46.9335 28.7235 45.0243 28.7235C43.1151 28.7235 41.5043 27.1667 41.4956 25.2458V15.6615C41.4956 15.3197 41.4945 14.7308 41.0183 14.3219C41.0183 14.3219 38.9041 12.7002 37.8725 12.1306C37.7423 12.0518 37.5308 12.1125 37.5308 12.335L37.5254 25.7388Z" fill="white"/>
<path d="M6.45331 21.6374C6.45331 21.6374 6.54551 21.7152 6.71365 21.8546C6.7169 21.7801 6.75378 21.6672 6.88938 21.5214C7.14538 21.236 13.1235 16.668 13.1235 16.668C13.9826 16.077 13.9565 15.2752 13.9565 15.2752V11.8571C13.9565 11.3183 13.5259 11.6271 13.5259 11.6271L8.28437 15.7352C7.76911 16.1398 5.80028 17.6124 5.08869 18.6996C4.52787 20.1009 6.45439 21.6374 6.45439 21.6374H6.45331Z" fill="white"/>
</g>
<path d="M62.0378 27.2995L61.1749 26.4619L65.845 21.8171L61.1749 17.1723L62.0378 16.3348L66.6826 20.9542L71.3274 16.3348L72.1649 17.1723L67.5202 21.8171L72.1649 26.4619L71.3274 27.2995L66.6826 22.6547L62.0378 27.2995Z" fill="white"/>
<defs>
<clipPath id="clip0_1851_4071">
<rect width="52.5238" height="30.6388" fill="white" transform="translate(0 6.60156)"/>
</clipPath>
</defs>
</svg>
