<svg width="112" height="18" viewBox="0 0 112 18" fill="none" xmlns="http://www.w3.org/2000/svg">
<path d="M0 17.2031V0.234375H6.375C10.2656 0.234375 12.3516 2.60156 12.3516 5.85938C12.3516 9.11719 10.2422 11.4609 6.32812 11.4609H3.04688V17.2031H0ZM3.04688 8.95312H5.90625C8.20312 8.95312 9.23438 7.66406 9.23438 5.85938C9.23438 4.03125 8.20312 2.78906 5.90625 2.78906H3.04688V8.95312ZM14.8125 17.2031V0.234375H25.8516V2.78906H17.8594V7.42969H25.2656V9.98438H17.8594V14.625H25.8984V17.2031H14.8125ZM28.7812 17.2031V0.234375H35.1562C39.0469 0.234375 41.1328 2.41406 41.1328 5.64844C41.1328 7.95703 40.0781 9.66797 38.0859 10.4766L41.7422 17.2031H38.3438L35.0156 10.9922H31.8281V17.2031H28.7812ZM31.8281 8.4375H34.6875C36.9844 8.4375 38.0156 7.45312 38.0156 5.64844C38.0156 3.84375 36.9844 2.78906 34.6875 2.78906H31.8281V8.4375ZM43.0078 2.78906V0.234375H56.5312V2.78906H51.3047V17.2031H48.2578V2.78906H43.0078ZM61.9688 0.234375V17.2031H58.9219V0.234375H61.9688ZM79.0781 0.234375V17.2031H76.3594L68.3203 5.60156H68.1797V17.2031H65.1328V0.234375H67.8984L75.8906 11.8359H76.0547V0.234375H79.0781ZM82.2188 17.2031V0.234375H93.2578V2.78906H85.2656V7.42969H92.6719V9.98438H85.2656V14.625H93.3047V17.2031H82.2188ZM111.328 8.71875C111.328 14.2031 108 17.4375 103.547 17.4375C99.0938 17.4375 95.7656 14.1797 95.7656 8.71875C95.7656 3.23438 99.0938 0 103.547 0C108 0 111.328 3.23438 111.328 8.71875ZM108.258 8.71875C108.258 4.85156 106.312 2.74219 103.547 2.74219C100.781 2.74219 98.8359 4.85156 98.8359 8.71875C98.8359 12.5859 100.781 14.6953 103.547 14.6953C106.312 14.6953 108.258 12.5859 108.258 8.71875Z" fill="url(#paint0_linear_896_1310)"/>
<defs>
<linearGradient id="paint0_linear_896_1310" x1="-1.57031" y1="-3.42671" x2="109.571" y2="32.7035" gradientUnits="userSpaceOnUse">
<stop stop-color="#002983"/>
<stop offset="0.620192" stop-color="#5F6C9C"/>
<stop offset="1" stop-color="#FFDB76"/>
</linearGradient>
</defs>
</svg>
